# xmcd
#
# Track frame offsets: 
#        150
#        14971
#        24659
#        34226
#        46837
#        58772
#        74799
#        86155
#        102235
#        119207
#        129748
#        146492
#
# Disc length: 2195 seconds
#
# Revision: 0
# Processed by: cddbd v1.5.2PL0 Copyright (c) Steve Scherf et al.
# Submitted via: ExactAudioCopy v1.3
#
DISCID=bf08910c
DTITLE=Martin Gross - Heart of Steel - 12 Resophonic Instrumentals
DYEAR=2004
DGENRE=Country
TTITLE0=Grassy Grooves
TTITLE1=Hello Tokyo
TTITLE2=Das Loch in der Banane
TTITLE3=East of Vienna
TTITLE4=Song for Elisabeth
TTITLE5=Tough Cookie
TTITLE6=East Tennessee Blues
TTITLE7=Frankie
TTITLE8=Hawaiian Blues
TTITLE9=Step by Step
TTITLE10=Blues Nr. 26
TTITLE11=Spring Meadow
EXTD=
EXTT0=
EXTT1=
EXTT2=
EXTT3=
EXTT4=
EXTT5=
EXTT6=
EXTT7=
EXTT8=
EXTT9=
EXTT10=
EXTT11=
PLAYORDER=
